<?xml version="1.0" encoding="utf-8"?>
<!-- Generator: Adobe Illustrator 22.1.0, SVG Export Plug-In . SVG Version: 6.00 Build 0)  -->
<svg version="1.1" id="Layer_1" xmlns="http://www.w3.org/2000/svg" xmlns:xlink="http://www.w3.org/1999/xlink" x="0px" y="0px"
	 viewBox="0 0 327 218.1" style="enable-background:new 0 0 327 218.1;" xml:space="preserve">
<style type="text/css">
	.st0{fill:#FFFFFF;}
</style>
<g>
	<path class="st0" d="M102.9,52.4c0.9-4.6,1.4-9.2,2.8-13.5c5.8-17.7,18.1-28.9,35.5-35c11.4-4,23.1-4.9,34.8-2.6
		c18.8,3.8,34,13.3,42.6,31c2.2,4.6,3.1,9.9,4.2,14.9c0.9,3.9,0.7,3.9,4.7,3.3c15.7-2.5,29.4,1.9,40.7,12.9c8,7.9,11.3,18,12.3,28.9
		c1.3,13.2-2.4,25.4-8,37.2c-8.9,18.4-21.1,34.5-35,49.3c-2.5,2.7-5.4,5.1-8.5,7.3c-6,4.2-12.8,3.5-17.9-1.7
		c-5.2-5.3-6-11.9-1.6-17.9c3.2-4.2,6.9-8.1,10.3-12.1c0.9-1.1,1.7-2.3,3-4c-2.1-0.1-3.5-0.3-5-0.3c-37.6,0-75.2,0.1-112.8-0.1
		c-11.5-0.1-22.7-2.8-32.9-8.2c-16.2-8.6-23.8-22.9-25-40.7c-1-14.9,4-27.7,15.1-38.1c7.1-6.6,15.7-9.7,25-10.7
		C92.6,52,97.9,52.4,102.9,52.4z M203.2,131.9c-0.4-0.7-2.1-1.8-2.3-2c-19.6-17.9-18.8-49-0.2-66.4c3.4-3.2,4.4-7.2,4.2-11.5
		c-0.5-12-6.8-20.8-16.8-26.7c-17.8-10.6-39.6-8.6-55.5,4.7c-11.7,9.8-13.4,26.2-4.1,38.3c1.6,2.1,3.3,4.2,4.7,6.4
		c3.3,5.1,2.1,10.7-2.7,13.6c-4.6,2.7-10.2,1.2-13.1-3.8c-6.4-10.7-15.6-15.3-28-13.6c-7,0.9-13,3.8-17.4,9.4
		c-12.3,15.3-6,39.3,12.1,47c7,3,14.3,4.1,21.8,4.2c28.9,0.3,57.7,0.5,86.6,0.6C195.3,131.9,199.9,132.2,203.2,131.9z M213.9,95.7
		c0.1,10,5.8,18.4,14.4,20.9c10.5,3,21.2-3.1,24.4-13.9c3.6-12-2.4-24.4-13.4-27.7C226.6,71.1,213.9,81.4,213.9,95.7z"/>
</g>
<g>
	<path class="st0" d="M17,203.9l-1.4,1c-0.8-1-1.7-1.7-2.7-2.2s-2.2-0.8-3.5-0.8c-1.4,0-2.7,0.3-3.9,1s-2.1,1.6-2.7,2.7
		s-1,2.4-1,3.8c0,2.1,0.7,3.8,2.2,5.1s3.3,1.9,5.5,1.9c2.4,0,4.5-1,6.1-2.9l1.4,1c-0.9,1.1-1.9,2-3.2,2.6s-2.7,0.9-4.3,0.9
		c-3,0-5.4-1-7.2-3c-1.5-1.7-2.2-3.6-2.2-5.8c0-2.5,0.9-4.7,2.7-6.4s4-2.6,6.7-2.6c1.6,0,3.1,0.3,4.4,1S16.2,202.8,17,203.9z"/>
	<path class="st0" d="M20.4,200.5h1.7v15.7h6.7v1.7h-8.4V200.5z"/>
	<path class="st0" d="M39.9,200.3c2.6,0,4.8,0.9,6.6,2.6s2.7,3.9,2.7,6.5c0,2.5-0.9,4.6-2.6,6.3s-3.9,2.4-6.5,2.4
		c-2.6,0-4.8-0.9-6.5-2.6s-2.7-3.8-2.7-6c0-1.7,0.4-3.2,1.2-4.6s1.9-2.5,3.3-3.4S38.3,200.3,39.9,200.3z M40,202
		c-1.3,0-2.5,0.3-3.7,1s-2,1.6-2.7,2.7s-1,2.4-1,3.8c0,2.1,0.7,3.7,2.1,5s3.1,1.9,5.2,1.9c1.3,0,2.6-0.3,3.7-1s2-1.5,2.7-2.7
		s1-2.2,1-3.4c0-1.4-0.3-2.6-1-3.7s-1.5-2-2.7-2.7S41.3,202,40,202z"/>
	<path class="st0" d="M52.7,200.3h1.7v10.5c0,1.2,0,2,0.1,2.3c0.1,0.7,0.3,1.3,0.6,1.7s0.8,0.8,1.4,1.1s1.3,0.5,2,0.5
		c0.6,0.1,1.4,0.1,2.4-0.2s1.7-0.6,2-1.1s0.6-1.1,0.8-1.7c0.1-0.4,0.2-1.3,0.2-2.7v-10.5h1.7v10.5c0,1.6-0.2,2.8-0.5,3.8
		s-0.9,1.8-1.8,2.5s-2.5,1.1-4.7,1.1c-1.4,0-2.6-0.3-3.6-1s-1.7-1.6-2-2.6c-0.2-0.7-0.3-1.9-0.3-3.7V200.3z"/>
	<path class="st0" d="M69.6,217.9v-17.4h3.6c2.6,0,4.5,0.2,5.7,0.6c1.7,0.6,3,1.6,3.9,3.1s1.4,3.2,1.4,5.2c0,1.7-0.4,3.3-1.1,4.6
		s-1.7,2.3-2.9,2.9s-2.9,0.9-5,0.9H69.6z M71.2,216.3h2c2.4,0,4.1-0.1,5-0.4c1.3-0.4,2.3-1.2,3.1-2.3s1.1-2.5,1.1-4.1
		c0-1.7-0.4-3.1-1.2-4.3s-1.9-2-3.4-2.4c-1.1-0.3-2.9-0.5-5.4-0.5h-1.2V216.3z"/>
	<path class="st0" d="M96.5,218.1l-1.4-0.9l4.7-6.6c-0.6,0.2-1.2,0.3-1.8,0.3c-1.4,0-2.5-0.5-3.5-1.5s-1.4-2.2-1.4-3.7
		c0-1,0.2-1.9,0.7-2.7s1.1-1.4,2-1.9s1.8-0.7,2.8-0.7c1,0,1.8,0.2,2.7,0.7s1.5,1.1,1.9,2s0.7,1.7,0.7,2.7c0,0.7-0.1,1.5-0.4,2.3
		s-0.8,1.7-1.5,2.8L96.5,218.1z M98.4,209.3c1,0,1.9-0.4,2.6-1.1s1.1-1.6,1.1-2.6c0-1-0.4-1.9-1.1-2.6s-1.6-1.1-2.6-1.1
		c-1,0-1.9,0.4-2.6,1.1s-1.1,1.6-1.1,2.6c0,1,0.4,1.9,1.1,2.6S97.4,209.3,98.4,209.3z"/>
	<path class="st0" d="M119.6,200.5l8.1,17.4h-1.9l-2.7-5.7h-7.5l-2.7,5.7H111l8.2-17.4H119.6z M119.4,204.2l-3,6.3h6L119.4,204.2z"
		/>
	<path class="st0" d="M130.4,200.5h1.7v15.7h6.7v1.7h-8.4V200.5z"/>
	<path class="st0" d="M137.6,202.3v-1.7h9.5v1.7h-3.9V218h-1.8v-15.7H137.6z"/>
	<path class="st0" d="M149.4,200.6h1.7V218h-1.7V200.6z"/>
	<path class="st0" d="M153.4,202.3v-1.7h9.5v1.7H159V218h-1.8v-15.7H153.4z"/>
	<path class="st0" d="M165.5,200.3h1.7v10.5c0,1.2,0,2,0.1,2.3c0.1,0.7,0.3,1.3,0.6,1.7s0.8,0.8,1.4,1.1s1.3,0.5,2,0.5
		c0.6,0.1,1.4,0.1,2.4-0.2s1.7-0.6,2-1.1s0.6-1.1,0.8-1.7c0.1-0.4,0.2-1.3,0.2-2.7v-10.5h1.7v10.5c0,1.6-0.2,2.8-0.5,3.8
		s-0.9,1.8-1.8,2.5s-2.5,1.1-4.7,1.1c-1.4,0-2.6-0.3-3.6-1s-1.7-1.6-2-2.6c-0.2-0.7-0.3-1.9-0.3-3.7V200.3z"/>
	<path class="st0" d="M182.4,217.9v-17.4h3.6c2.6,0,4.5,0.2,5.7,0.6c1.7,0.6,3,1.6,3.9,3.1s1.4,3.2,1.4,5.2c0,1.7-0.4,3.3-1.1,4.6
		s-1.7,2.3-2.9,2.9s-2.9,0.9-5,0.9H182.4z M184.1,216.3h2c2.4,0,4.1-0.1,5-0.4c1.3-0.4,2.3-1.2,3.1-2.3s1.1-2.5,1.1-4.1
		c0-1.7-0.4-3.1-1.2-4.3s-1.9-2-3.4-2.4c-1.1-0.3-2.9-0.5-5.4-0.5h-1.2V216.3z"/>
	<path class="st0" d="M200.4,200.6h10v1.7h-8.2v5.4h5v1.7h-5v6.8h8.2v1.7h-9.9V200.6z"/>
	<path class="st0" d="M218.1,202.3v-1.7h9.5v1.7h-3.9V218h-1.8v-15.7H218.1z"/>
	<path class="st0" d="M230.2,200.6h3.5c1.9,0,3.2,0.1,3.9,0.2c1,0.2,1.9,0.7,2.5,1.5s1,1.7,1,2.9c0,1-0.2,1.8-0.7,2.5
		s-1.1,1.3-1.9,1.6s-1.6,0.6-2.2,0.6l5,8.1h-2.1l-5-8.1h-2.3v8.1h-1.7V200.6z M231.9,202.3v5.9l3,0c1.2,0,2-0.1,2.6-0.3
		s1-0.6,1.3-1.1s0.5-1,0.5-1.6c0-0.6-0.2-1.1-0.5-1.6s-0.7-0.8-1.2-1s-1.4-0.3-2.6-0.3H231.9z"/>
	<path class="st0" d="M251.8,200.5l8.1,17.4h-1.9l-2.7-5.7h-7.5l-2.7,5.7h-1.9l8.2-17.4H251.8z M251.6,204.2l-3,6.3h6L251.6,204.2z"
		/>
	<path class="st0" d="M262.4,200.6h1.7V218h-1.7V200.6z"/>
	<path class="st0" d="M268.1,218v-17.4h0.4l11.6,13.3v-13.3h1.7V218h-0.4l-11.4-13.1V218H268.1z"/>
	<path class="st0" d="M285.7,200.6h1.7V218h-1.7V200.6z"/>
	<path class="st0" d="M291.4,218v-17.4h0.4l11.6,13.3v-13.3h1.7V218h-0.4l-11.4-13.1V218H291.4z"/>
	<path class="st0" d="M326,203.6l-1.3,1.3c-1-1-2-1.7-3.2-2.2s-2.3-0.7-3.4-0.7c-1.4,0-2.7,0.3-3.9,1s-2.2,1.6-2.9,2.7s-1,2.2-1,3.3
		c0,1.3,0.4,2.6,1.1,3.7s1.7,2.1,2.9,2.8s2.6,1,4.1,1c1.8,0,3.3-0.5,4.5-1.5s2-2.3,2.2-3.9h-5.5v-1.7h7.5c0,2.7-0.8,4.8-2.4,6.4
		s-3.7,2.4-6.3,2.4c-3.2,0-5.7-1.1-7.6-3.3c-1.4-1.7-2.2-3.6-2.2-5.8c0-1.6,0.4-3.1,1.2-4.4s2-2.3,3.4-3.1s3.1-1.2,4.9-1.2
		c1.5,0,2.9,0.3,4.1,0.8S324.8,202.4,326,203.6z"/>
</g>
</svg>
