<svg id="Layer_1" xmlns="http://www.w3.org/2000/svg" viewBox="0 0 327 218.1"><style>.st0{fill:#fff}</style><path class="st0" d="M102.9 52.4c.9-4.6 1.4-9.2 2.8-13.5 5.8-17.7 18.1-28.9 35.5-35 11.4-4 23.1-4.9 34.8-2.6 18.8 3.8 34 13.3 42.6 31 2.2 4.6 3.1 9.9 4.2 14.9.9 3.9.7 3.9 4.7 3.3 15.7-2.5 29.4 1.9 40.7 12.9 8 7.9 11.3 18 12.3 28.9 1.3 13.2-2.4 25.4-8 37.2-8.9 18.4-21.1 34.5-35 49.3-2.5 2.7-5.4 5.1-8.5 7.3-6 4.2-12.8 3.5-17.9-1.7-5.2-5.3-6-11.9-1.6-17.9 3.2-4.2 6.9-8.1 10.3-12.1.9-1.1 1.7-2.3 3-4-2.1-.1-3.5-.3-5-.3-37.6 0-75.2.1-112.8-.1-11.5-.1-22.7-2.8-32.9-8.2-16.2-8.6-23.8-22.9-25-40.7-1-14.9 4-27.7 15.1-38.1 7.1-6.6 15.7-9.7 25-10.7 5.4-.3 10.7.1 15.7.1zm100.3 79.5c-.4-.7-2.1-1.8-2.3-2-19.6-17.9-18.8-49-.2-66.4 3.4-3.2 4.4-7.2 4.2-11.5-.5-12-6.8-20.8-16.8-26.7-17.8-10.6-39.6-8.6-55.5 4.7-11.7 9.8-13.4 26.2-4.1 38.3 1.6 2.1 3.3 4.2 4.7 6.4 3.3 5.1 2.1 10.7-2.7 13.6-4.6 2.7-10.2 1.2-13.1-3.8-6.4-10.7-15.6-15.3-28-13.6-7 .9-13 3.8-17.4 9.4-12.3 15.3-6 39.3 12.1 47 7 3 14.3 4.1 21.8 4.2 28.9.3 57.7.5 86.6.6 2.8-.2 7.4.1 10.7-.2zm10.7-36.2c.1 10 5.8 18.4 14.4 20.9 10.5 3 21.2-3.1 24.4-13.9 3.6-12-2.4-24.4-13.4-27.7-12.7-3.9-25.4 6.4-25.4 20.7zM17 203.9l-1.4 1c-.8-1-1.7-1.7-2.7-2.2s-2.2-.8-3.5-.8c-1.4 0-2.7.3-3.9 1s-2.1 1.6-2.7 2.7-1 2.4-1 3.8c0 2.1.7 3.8 2.2 5.1s3.3 1.9 5.5 1.9c2.4 0 4.5-1 6.1-2.9l1.4 1c-.9 1.1-1.9 2-3.2 2.6s-2.7.9-4.3.9c-3 0-5.4-1-7.2-3-1.5-1.7-2.2-3.6-2.2-5.8 0-2.5.9-4.7 2.7-6.4s4-2.6 6.7-2.6c1.6 0 3.1.3 4.4 1s2.3 1.6 3.1 2.7zM20.4 200.5h1.7v15.7h6.7v1.7h-8.4v-17.4zM39.9 200.3c2.6 0 4.8.9 6.6 2.6s2.7 3.9 2.7 6.5c0 2.5-.9 4.6-2.6 6.3s-3.9 2.4-6.5 2.4-4.8-.9-6.5-2.6-2.7-3.8-2.7-6c0-1.7.4-3.2 1.2-4.6s1.9-2.5 3.3-3.4 2.9-1.2 4.5-1.2zm.1 1.7c-1.3 0-2.5.3-3.7 1s-2 1.6-2.7 2.7-1 2.4-1 3.8c0 2.1.7 3.7 2.1 5s3.1 1.9 5.2 1.9c1.3 0 2.6-.3 3.7-1s2-1.5 2.7-2.7 1-2.2 1-3.4c0-1.4-.3-2.6-1-3.7s-1.5-2-2.7-2.7-2.3-.9-3.6-.9zM52.7 200.3h1.7v10.5c0 1.2 0 2 .1 2.3.1.7.3 1.3.6 1.7s.8.8 1.4 1.1 1.3.5 2 .5c.6.1 1.4.1 2.4-.2s1.7-.6 2-1.1.6-1.1.8-1.7c.1-.4.2-1.3.2-2.7v-10.5h1.7v10.5c0 1.6-.2 2.8-.5 3.8s-.9 1.8-1.8 2.5-2.5 1.1-4.7 1.1c-1.4 0-2.6-.3-3.6-1s-1.7-1.6-2-2.6c-.2-.7-.3-1.9-.3-3.7v-10.5zM69.6 217.9v-17.4h3.6c2.6 0 4.5.2 5.7.6 1.7.6 3 1.6 3.9 3.1s1.4 3.2 1.4 5.2c0 1.7-.4 3.3-1.1 4.6s-1.7 2.3-2.9 2.9-2.9.9-5 .9h-5.6zm1.6-1.6h2c2.4 0 4.1-.1 5-.4 1.3-.4 2.3-1.2 3.1-2.3s1.1-2.5 1.1-4.1c0-1.7-.4-3.1-1.2-4.3s-1.9-2-3.4-2.4c-1.1-.3-2.9-.5-5.4-.5h-1.2v14zM96.5 218.1l-1.4-.9 4.7-6.6c-.6.2-1.2.3-1.8.3-1.4 0-2.5-.5-3.5-1.5s-1.4-2.2-1.4-3.7c0-1 .2-1.9.7-2.7s1.1-1.4 2-1.9 1.8-.7 2.8-.7c1 0 1.8.2 2.7.7s1.5 1.1 1.9 2 .7 1.7.7 2.7c0 .7-.1 1.5-.4 2.3s-.8 1.7-1.5 2.8l-5.5 7.2zm1.9-8.8c1 0 1.9-.4 2.6-1.1s1.1-1.6 1.1-2.6-.4-1.9-1.1-2.6-1.6-1.1-2.6-1.1-1.9.4-2.6 1.1-1.1 1.6-1.1 2.6.4 1.9 1.1 2.6 1.6 1.1 2.6 1.1zM119.6 200.5l8.1 17.4h-1.9l-2.7-5.7h-7.5l-2.7 5.7H111l8.2-17.4h.4zm-.2 3.7l-3 6.3h6l-3-6.3zM130.4 200.5h1.7v15.7h6.7v1.7h-8.4v-17.4zM137.6 202.3v-1.7h9.5v1.7h-3.9V218h-1.8v-15.7h-3.8zM149.4 200.6h1.7V218h-1.7v-17.4zM153.4 202.3v-1.7h9.5v1.7H159V218h-1.8v-15.7h-3.8zM165.5 200.3h1.7v10.5c0 1.2 0 2 .1 2.3.1.7.3 1.3.6 1.7s.8.8 1.4 1.1 1.3.5 2 .5c.6.1 1.4.1 2.4-.2s1.7-.6 2-1.1.6-1.1.8-1.7c.1-.4.2-1.3.2-2.7v-10.5h1.7v10.5c0 1.6-.2 2.8-.5 3.8s-.9 1.8-1.8 2.5-2.5 1.1-4.7 1.1c-1.4 0-2.6-.3-3.6-1s-1.7-1.6-2-2.6c-.2-.7-.3-1.9-.3-3.7v-10.5zM182.4 217.9v-17.4h3.6c2.6 0 4.5.2 5.7.6 1.7.6 3 1.6 3.9 3.1s1.4 3.2 1.4 5.2c0 1.7-.4 3.3-1.1 4.6s-1.7 2.3-2.9 2.9-2.9.9-5 .9h-5.6zm1.7-1.6h2c2.4 0 4.1-.1 5-.4 1.3-.4 2.3-1.2 3.1-2.3s1.1-2.5 1.1-4.1c0-1.7-.4-3.1-1.2-4.3s-1.9-2-3.4-2.4c-1.1-.3-2.9-.5-5.4-.5h-1.2v14zM200.4 200.6h10v1.7h-8.2v5.4h5v1.7h-5v6.8h8.2v1.7h-9.9v-17.3zM218.1 202.3v-1.7h9.5v1.7h-3.9V218h-1.8v-15.7h-3.8zM230.2 200.6h3.5c1.9 0 3.2.1 3.9.2 1 .2 1.9.7 2.5 1.5s1 1.7 1 2.9c0 1-.2 1.8-.7 2.5s-1.1 1.3-1.9 1.6-1.6.6-2.2.6l5 8.1h-2.1l-5-8.1h-2.3v8.1h-1.7v-17.4zm1.7 1.7v5.9h3c1.2 0 2-.1 2.6-.3s1-.6 1.3-1.1.5-1 .5-1.6c0-.6-.2-1.1-.5-1.6s-.7-.8-1.2-1-1.4-.3-2.6-.3h-3.1zM251.8 200.5l8.1 17.4H258l-2.7-5.7h-7.5l-2.7 5.7h-1.9l8.2-17.4h.4zm-.2 3.7l-3 6.3h6l-3-6.3zM262.4 200.6h1.7V218h-1.7v-17.4zM268.1 218v-17.4h.4l11.6 13.3v-13.3h1.7V218h-.4L270 204.9V218h-1.9zM285.7 200.6h1.7V218h-1.7v-17.4zM291.4 218v-17.4h.4l11.6 13.3v-13.3h1.7V218h-.4l-11.4-13.1V218h-1.9zM326 203.6l-1.3 1.3c-1-1-2-1.7-3.2-2.2s-2.3-.7-3.4-.7c-1.4 0-2.7.3-3.9 1s-2.2 1.6-2.9 2.7-1 2.2-1 3.3c0 1.3.4 2.6 1.1 3.7s1.7 2.1 2.9 2.8 2.6 1 4.1 1c1.8 0 3.3-.5 4.5-1.5s2-2.3 2.2-3.9h-5.5v-1.7h7.5c0 2.7-.8 4.8-2.4 6.4s-3.7 2.4-6.3 2.4c-3.2 0-5.7-1.1-7.6-3.3-1.4-1.7-2.2-3.6-2.2-5.8 0-1.6.4-3.1 1.2-4.4s2-2.3 3.4-3.1 3.1-1.2 4.9-1.2c1.5 0 2.9.3 4.1.8s2.6 1.2 3.8 2.4z"/></svg>